<svg xmlns="http://www.w3.org/2000/svg" style="display:none">
    <symbol id="icon-dashboard" viewBox="0 0 24 24" fill="none" stroke="currentColor" stroke-width="2" stroke-linecap="round" stroke-linejoin="round">
        <rect width="7" height="9" x="3" y="3" rx="1"/>
        <rect width="7" height="5" x="14" y="3" rx="1"/>
        <rect width="7" height="9" x="14" y="12" rx="1"/>
        <rect width="7" height="5" x="3" y="16" rx="1"/>
    </symbol>
    <symbol id="icon-expenses" viewBox="0 0 24 24" fill="none" stroke="currentColor" stroke-width="2" stroke-linecap="round" stroke-linejoin="round">
        <path d="M4 2v20l2-1 2 1 2-1 2 1 2-1 2 1 2-1 2 1V2l-2 1-2-1-2 1-2-1-2 1-2-1-2 1Z"/>
        <path d="M16 8h-6a2 2 0 1 0 0 4h4a2 2 0 1 1 0 4H8"/>
        <path d="M12 17.5v-11"/>
    </symbol>
    <symbol id="icon-upload-ticket" viewBox="0 0 24 24" fill="none" stroke="currentColor" stroke-width="2" stroke-linecap="round" stroke-linejoin="round">
        <path d="M21 15v4a2 2 0 0 1-2 2H5a2 2 0 0 1-2-2v-4"/>
        <polyline points="17 8 12 3 7 8"/>
        <line x1="12" x2="12" y1="3" y2="15"/>
    </symbol>
    <symbol id="icon-budgets" viewBox="0 0 24 24" fill="none" stroke="currentColor" stroke-width="2" stroke-linecap="round" stroke-linejoin="round">
        <path d="M19 7V4a1 1 0 0 0-1-1H5a2 2 0 0 0 0 4h15a1 1 0 0 1 1 1v4h-3a2 2 0 0 0 0 4h3a1 1 0 0 0 1-1v-2a1 1 0 0 0-1-1"/>
        <path d="M3 5v14a2 2 0 0 0 2 2h15a1 1 0 0 0 1-1v-4"/>
    </symbol>
    <symbol id="icon-savings" viewBox="0 0 24 24" fill="none" stroke="currentColor" stroke-width="2" stroke-linecap="round" stroke-linejoin="round">
        <path d="M12 2v20"/>
        <path d="M17 5H9.5a3.5 3.5 0 0 0 0 7h5a3.5 3.5 0 0 1 0 7H6"/>
    </symbol>
    <symbol id="icon-profile" viewBox="0 0 24 24" fill="none" stroke="currentColor" stroke-width="2" stroke-linecap="round" stroke-linejoin="round">
        <circle cx="12" cy="8" r="5"/>
        <path d="M20 21a8 8 0 0 0-16 0"/>
    </symbol>
    <symbol id="icon-advisor-panel" viewBox="0 0 24 24" fill="none" stroke="currentColor" stroke-width="2" stroke-linecap="round" stroke-linejoin="round">
        <path d="M16 21v-2a4 4 0 0 0-4-4H6a4 4 0 0 0-4 4v2"/>
        <circle cx="9" cy="7" r="4"/>
        <path d="M22 21v-2a4 4 0 0 0-3-3.87"/>
        <path d="M16 3.13a4 4 0 0 1 0 7.75"/>
    </symbol>
    <symbol id="icon-advisor-user-detail" viewBox="0 0 24 24" fill="none" stroke="currentColor" stroke-width="2" stroke-linecap="round" stroke-linejoin="round">
        <circle cx="10" cy="7" r="4"/>
        <path d="M10.3 15H7a4 4 0 0 0-4 4v2"/>
        <circle cx="17" cy="17" r="3"/>
        <path d="m21 21-1.9-1.9"/>
    </symbol>
    <symbol id="icon-arrow" viewBox="0 0 24 24" fill="none" stroke="currentColor" stroke-width="2.5" stroke-linecap="round" stroke-linejoin="round">
        <path d="M7 7h10v10"/>
        <path d="M7 17 17 7"/>
    </symbol>
</svg>
