<?xml version="1.0" encoding="UTF-8" standalone="no"?>
<!-- Created with Inkscape (http://www.inkscape.org/) -->

<svg
   version="1.1"
   id="svg1"
   width="832"
   height="300"
   viewBox="0 0 832 300"
   sodipodi:docname="Logo cuentas claras.svg"
   inkscape:version="1.4.2 (f4327f4, 2025-05-13)"
   xmlns:inkscape="http://www.inkscape.org/namespaces/inkscape"
   xmlns:sodipodi="http://sodipodi.sourceforge.net/DTD/sodipodi-0.dtd"
   xmlns="http://www.w3.org/2000/svg"
   xmlns:svg="http://www.w3.org/2000/svg">
  <defs
     id="defs1" />
  <sodipodi:namedview
     id="namedview1"
     pagecolor="#ffffff"
     bordercolor="#000000"
     borderopacity="0.25"
     inkscape:showpageshadow="2"
     inkscape:pageopacity="0.0"
     inkscape:pagecheckerboard="0"
     inkscape:deskcolor="#d1d1d1"
     inkscape:zoom="1.46875"
     inkscape:cx="500.08511"
     inkscape:cy="171.91489"
     inkscape:window-width="1366"
     inkscape:window-height="697"
     inkscape:window-x="-8"
     inkscape:window-y="-8"
     inkscape:window-maximized="1"
     inkscape:current-layer="g1" />
  <g
     inkscape:groupmode="layer"
     inkscape:label="Image"
     id="g1">
    <g
       id="g2"
       transform="matrix(1.2356707,0,0,1.1720714,-28.809754,-106.09221)">
      <path
         style="fill:#cfd1d0"
         d="m 359.13219,284.78723 c 0,-12.925 0.14252,-18.2125 0.31671,-11.75 0.17418,6.4625 0.17418,17.0375 0,23.5 -0.17419,6.4625 -0.31671,1.175 -0.31671,-11.75 z m -33.99297,-17.25 -2.93709,-3.25 3.25,2.93709 c 3.02945,2.73778 3.70965,3.56291 2.93709,3.56291 -0.1721,0 -1.6346,-1.4625 -3.25,-3.25 z m -13.56465,-11.5 c -1.24387,-1.58605 -1.2085,-1.62142 0.37756,-0.37755 0.9625,0.75484 1.75,1.54234 1.75,1.75 0,0.82303 -0.82119,0.2933 -2.12756,-1.37245 z m 133.57144,-35.25 c 0,-16.775 0.13684,-23.6375 0.3041,-15.25 0.16726,8.3875 0.16726,22.1125 0,30.5 -0.16726,8.3875 -0.3041,1.525 -0.3041,-15.25 z m -147.51957,23.25 -2.42431,-2.75 2.75,2.42432 c 2.57029,2.26588 3.20859,3.07568 2.42431,3.07568 -0.17912,0 -1.41662,-1.2375 -2.75,-2.75 z m 47.57569,-2.25 c 0.99549,-1.1 2.03497,-2 2.30997,-2 0.275,0 -0.31448,0.9 -1.30997,2 -0.99549,1.1 -2.03498,2 -2.30998,2 -0.275,0 0.31449,-0.9 1.30998,-2 z m 23.5,-2.37755 c 0,-0.20766 0.7875,-0.99516 1.75,-1.75 1.58605,-1.24387 1.62143,-1.2085 0.37755,0.37755 -1.30637,1.66575 -2.12755,2.19548 -2.12755,1.37245 z m -15.5,-6.62245 c 0.99549,-1.1 2.03497,-2 2.30997,-2 0.275,0 -0.31448,0.9 -1.30997,2 -0.99549,1.1 -2.03498,2 -2.30998,2 -0.275,0 0.31449,-0.9 1.30998,-2 z m -48.5,-6 c -0.90129,-0.58246 -1.02463,-0.97548 -0.30902,-0.98469 0.65504,-0.008 1.4691,0.43469 1.80902,0.98469 0.7673,1.24153 0.42112,1.24153 -1.5,0 z m 55,-1.37755 c 0,-0.20766 0.7875,-0.99516 1.75,-1.75 1.58605,-1.24387 1.62143,-1.2085 0.37755,0.37755 -1.30637,1.66575 -2.12755,2.19548 -2.12755,1.37245 z m 22,-1 c 0,-0.20766 0.7875,-0.99516 1.75,-1.75 1.58605,-1.24387 1.62143,-1.2085 0.37755,0.37755 -1.30637,1.66575 -2.12755,2.19548 -2.12755,1.37245 z m -22.77207,-27.37245 0.27207,-18.75 10,-0.0524 10,-0.0524 -9.79245,0.33789 -9.79244,0.33789 0.29244,18.4657 c 0.16085,10.15614 -0.055,18.46518 -0.47962,18.46455 -0.42463,-6.3e-4 -0.64963,-8.43865 -0.5,-18.75115 z m 4.77207,13.37245 c 0,-0.20766 0.7875,-0.99516 1.75,-1.75 1.58605,-1.24387 1.62143,-1.2085 0.37755,0.37755 -1.30637,1.66575 -2.12755,2.19548 -2.12755,1.37245 z m 35,-5 c 0,-0.20766 0.7875,-0.99516 1.75,-1.75 1.58605,-1.24387 1.62143,-1.2085 0.37755,0.37755 -1.30637,1.66575 -2.12755,2.19548 -2.12755,1.37245 z m 9,0 c 0,-0.20766 0.7875,-0.99516 1.75,-1.75 1.58605,-1.24387 1.62143,-1.2085 0.37755,0.37755 -1.30637,1.66575 -2.12755,2.19548 -2.12755,1.37245 z m -27,-4 c 0,-0.20766 0.7875,-0.99516 1.75,-1.75 1.58605,-1.24387 1.62143,-1.2085 0.37755,0.37755 -1.30637,1.66575 -2.12755,2.19548 -2.12755,1.37245 z m 17,-19.12245 c 1.86578,-1.925 3.61733,-3.5 3.89233,-3.5 0.275,0 -1.02655,1.575 -2.89233,3.5 -1.86578,1.925 -3.61733,3.5 -3.89233,3.5 -0.275,0 1.02655,-1.575 2.89233,-3.5 z m 18,3.12245 c 0,-0.20766 0.7875,-0.99516 1.75,-1.75 1.58605,-1.24387 1.62143,-1.2085 0.37755,0.37755 -1.30637,1.66575 -2.12755,2.19548 -2.12755,1.37245 z M 307.97449,174.78723 c 0,-2.475 0.19502,-3.4875 0.43337,-2.25 0.23836,1.2375 0.23836,3.2625 0,4.5 -0.23835,1.2375 -0.43337,0.225 -0.43337,-2.25 z m 128.60008,-1.75 c -1.24387,-1.58605 -1.2085,-1.62142 0.37756,-0.37755 1.66575,1.30637 2.19548,2.12755 1.37244,2.12755 -0.20765,0 -0.99515,-0.7875 -1.75,-1.75 z m -20.87244,-11.62755 c 0,-0.20766 0.7875,-0.99516 1.75,-1.75 1.58605,-1.24387 1.62143,-1.2085 0.37755,0.37755 -1.30637,1.66575 -2.12755,2.19548 -2.12755,1.37245 z m -6.12756,-12.37245 c -1.24387,-1.58605 -1.2085,-1.62142 0.37756,-0.37755 1.66575,1.30637 2.19548,2.12755 1.37244,2.12755 -0.20765,0 -0.99515,-0.7875 -1.75,-1.75 z m -45.12244,-8.91228 c 0.6875,-0.27741 1.8125,-0.27741 2.5,0 0.6875,0.27741 0.125,0.50439 -1.25,0.50439 -1.375,0 -1.9375,-0.22698 -1.25,-0.50439 z m 8.51903,-0.0307 c 0.97297,-0.25354 2.32297,-0.23687 3,0.037 0.67703,0.27393 -0.11903,0.48137 -1.76903,0.46099 -1.65,-0.0204 -2.20394,-0.2445 -1.23097,-0.49804 z"
         id="path8" />
      <path
         style="fill:#a3a8a4"
         d="m 349.10207,289.28723 c 10e-4,-8.25 0.15629,-11.49193 0.34419,-7.20429 0.1879,4.28764 0.18676,11.03764 -0.003,15 -0.1893,3.96236 -0.34304,0.45429 -0.34164,-7.79571 z m -36.5275,5.75 c -1.24387,-1.58605 -1.2085,-1.62142 0.37756,-0.37755 1.66575,1.30637 2.19548,2.12755 1.37244,2.12755 -0.20765,0 -0.99515,-0.7875 -1.75,-1.75 z m -5.46745,-6.5 -1.90499,-2.25 2.25,1.90499 c 2.11444,1.79022 2.70524,2.59501 1.90499,2.59501 -0.18976,0 -1.20226,-1.0125 -2.25,-2.25 z m 20.84719,-3.25 c 0.0111,-2.2 0.21589,-2.98225 0.45508,-1.73834 0.23919,1.24391 0.23011,3.04391 -0.0202,4 -0.25029,0.95609 -0.446,-0.0617 -0.4349,-2.26166 z m 20.24782,-22.5 c 0.99549,-1.1 2.03497,-2 2.30997,-2 0.275,0 -0.31448,0.9 -1.30997,2 -0.99549,1.1 -2.03498,2 -2.30998,2 -0.275,0 0.31449,-0.9 1.30998,-2 z m -9.5,-13.37755 c 0,-0.20766 0.7875,-0.99516 1.75,-1.75 1.58605,-1.24387 1.62143,-1.2085 0.37755,0.37755 -1.30637,1.66575 -2.12755,2.19548 -2.12755,1.37245 z m -14.12756,-5.37245 c -1.24387,-1.58605 -1.2085,-1.62142 0.37756,-0.37755 1.66575,1.30637 2.19548,2.12755 1.37244,2.12755 -0.20765,0 -0.99515,-0.7875 -1.75,-1.75 z m -31,-4 c -1.24387,-1.58605 -1.2085,-1.62142 0.37756,-0.37755 0.9625,0.75484 1.75,1.54234 1.75,1.75 0,0.82303 -0.82119,0.2933 -2.12756,-1.37245 z m 34.59016,-19.99903 0.0374,-16.75097 h 10.5 10.5 l 0.0476,11.5 0.0476,11.5 -0.32931,-11.25 -0.32932,-11.25 h -9.94409 -9.94408 l -0.31158,16.50097 -0.31158,16.50096 z m -29.4626,12.37148 c 0,-0.20766 0.7875,-0.99516 1.75,-1.75 1.58605,-1.24387 1.62143,-1.2085 0.37755,0.37755 -1.30637,1.66575 -2.12755,2.19548 -2.12755,1.37245 z m 9.41858,-31.62245 c 0,-10.725 0.14711,-15.1125 0.32692,-9.75 0.17981,5.3625 0.17981,14.1375 0,19.5 -0.17981,5.3625 -0.32692,0.975 -0.32692,-9.75 z m 60.58142,14.62245 c 0,-0.20766 0.7875,-0.99516 1.75,-1.75 1.58605,-1.24387 1.62143,-1.2085 0.37755,0.37755 -1.30637,1.66575 -2.12755,2.19548 -2.12755,1.37245 z m 17,-19.12245 c 1.29174,-1.375 2.57363,-2.5 2.84863,-2.5 0.275,0 -0.55689,1.125 -1.84863,2.5 -1.29175,1.375 -2.57363,2.5 -2.84863,2.5 -0.275,0 0.55688,-1.125 1.84863,-2.5 z m -9,-0.87755 c 0,-0.20766 0.7875,-0.99516 1.75,-1.75 1.58605,-1.24387 1.62143,-1.2085 0.37755,0.37755 -1.30637,1.66575 -2.12755,2.19548 -2.12755,1.37245 z m 30,-35.01546 c 0,-0.21616 0.69837,-0.661 1.55194,-0.98855 0.88992,-0.34149 1.29132,-0.17384 0.94098,0.39302 -0.58726,0.9502 -2.49292,1.40544 -2.49292,0.59553 z m -38.25,-20.26927 c 0.6875,-0.27741 1.8125,-0.27741 2.5,0 0.6875,0.27741 0.125,0.50439 -1.25,0.50439 -1.375,0 -1.9375,-0.22698 -1.25,-0.50439 z m 78.75,-1.33772 c -0.33992,-0.55 -0.14148,-1 0.44098,-1 0.58246,0 1.05902,0.45 1.05902,1 0,0.55 -0.19844,1 -0.44098,1 -0.24254,0 -0.7191,-0.45 -1.05902,-1 z"
         id="path7" />
      <path
         style="fill:#638870"
         d="m 368.51463,327.10412 c 0.72187,-0.28887 1.58437,-0.25335 1.91667,0.0789 0.33229,0.3323 -0.25834,0.56865 -1.3125,0.52522 -1.16495,-0.048 -1.4019,-0.28494 -0.60417,-0.60416 z m 56.1875,-31.81689 c 1.29174,-1.375 2.57363,-2.5 2.84863,-2.5 0.275,0 -0.55689,1.125 -1.84863,2.5 -1.29175,1.375 -2.57363,2.5 -2.84863,2.5 -0.275,0 0.55688,-1.125 1.84863,-2.5 z m 5,-5.87755 c 0,-0.20766 0.7875,-0.99516 1.75,-1.75 1.58605,-1.24387 1.62143,-1.2085 0.37755,0.37755 -1.30637,1.66575 -2.12755,2.19548 -2.12755,1.37245 z m -87,-9 c 0,-0.20766 0.7875,-0.99516 1.75,-1.75 1.58605,-1.24387 1.62143,-1.2085 0.37755,0.37755 -1.30637,1.66575 -2.12755,2.19548 -2.12755,1.37245 z m -11.12756,-40.37245 c -1.24387,-1.58605 -1.2085,-1.62142 0.37756,-0.37755 0.9625,0.75484 1.75,1.54234 1.75,1.75 0,0.82303 -0.82119,0.2933 -2.12756,-1.37245 z m -20.94813,-8 -2.42431,-2.75 2.75,2.42432 c 1.5125,1.33337 2.75,2.57087 2.75,2.75 0,0.78427 -0.8098,0.14597 -3.07569,-2.42432 z m 54.07569,-11.62755 c 0,-0.20766 0.7875,-0.99516 1.75,-1.75 1.58605,-1.24387 1.62143,-1.2085 0.37755,0.37755 -1.30637,1.66575 -2.12755,2.19548 -2.12755,1.37245 z m 27,-31 c 0,-0.20766 0.7875,-0.99516 1.75,-1.75 1.58605,-1.24387 1.62143,-1.2085 0.37755,0.37755 -1.30637,1.66575 -2.12755,2.19548 -2.12755,1.37245 z m 15,-17 c 0,-0.20766 0.7875,-0.99516 1.75,-1.75 1.58605,-1.24387 1.62143,-1.2085 0.37755,0.37755 -1.30637,1.66575 -2.12755,2.19548 -2.12755,1.37245 z"
         id="path6" />
      <path
         style="fill:#565c57"
         d="m 379.15231,274.28723 c 3.4e-4,-19.25 0.13469,-26.98347 0.29856,-17.18549 0.16386,9.79797 0.16358,25.54797 -6.2e-4,35 -0.16421,9.45202 -0.29828,1.43549 -0.29794,-17.81451 z m 31.00726,14.2497 c -0.26388,-0.68767 -0.36197,-20.15017 -0.21798,-43.25 l 0.2618,-41.9997 0.49937,43.25031 c 0.27465,23.78767 0.37275,43.25017 0.21798,43.25 -0.15476,-1.7e-4 -0.49728,-0.56295 -0.76117,-1.25061 z m -100.585,-35.4997 c -1.24387,-1.58605 -1.2085,-1.62142 0.37756,-0.37755 0.9625,0.75484 1.75,1.54234 1.75,1.75 0,0.82303 -0.82119,0.2933 -2.12756,-1.37245 z m 8,-15 c -1.24387,-1.58605 -1.2085,-1.62142 0.37756,-0.37755 1.66575,1.30637 2.19548,2.12755 1.37244,2.12755 -0.20765,0 -0.99515,-0.7875 -1.75,-1.75 z m 86.12756,-27.62755 c 0,-0.20766 0.7875,-0.99516 1.75,-1.75 1.58605,-1.24387 1.62143,-1.2085 0.37755,0.37755 -1.30637,1.66575 -2.12755,2.19548 -2.12755,1.37245 z m -24.66379,-24.62245 c 0,-4.125 0.17651,-5.8125 0.39226,-3.75 0.21574,2.0625 0.21574,5.4375 0,7.5 -0.21575,2.0625 -0.39226,0.375 -0.39226,-3.75 z m -12.5683,-31.72473 c 1.79735,-0.22256 4.49735,-0.21797 6,0.0102 1.50265,0.22817 0.0321,0.41027 -3.26791,0.40465 -3.3,-0.006 -4.52944,-0.1923 -2.73209,-0.41486 z"
         id="path5" />
      <path
         style="fill:#166434"
         d="m 334.53727,274.1143 c -0.91567,-0.24251 -1.91804,-1.10072 -2.22749,-1.90713 -0.45955,-1.19756 -0.1846,-1.2639 1.5005,-0.36206 1.13473,0.60729 2.3246,0.8427 2.64416,0.52314 0.31956,-0.31956 0.0295,-0.58102 -0.64466,-0.58102 -0.67413,0 -0.9046,-0.51953 -0.51216,-1.15451 0.45139,-0.73036 0.27329,-0.88242 -0.48479,-0.41391 -0.65907,0.40733 -1.84787,0.20152 -2.64177,-0.45736 -0.7939,-0.65889 -2.06127,-0.9609 -2.81636,-0.67114 -0.7551,0.28976 -2.78583,-0.97113 -4.51274,-2.80199 -3.1194,-3.30716 -4.12157,-5.22587 -2.06601,-3.95546 0.59061,0.36501 0.48236,-0.28343 -0.24054,-1.44099 -0.72291,-1.15755 -1.68269,-2.10464 -2.13284,-2.10464 -0.45016,0 -0.49739,-0.51953 -0.10495,-1.15451 0.48862,-0.7906 0.27082,-0.87826 -0.69098,-0.27812 -2.43116,1.517 -4.10186,1.3893 -3.46704,-0.26501 0.44631,-1.16306 0.0925,-1.41271 -1.4357,-1.01307 -2.10371,0.55013 -4.60207,-2.35566 -3.21659,-3.74114 0.39315,-0.39315 0.26482,-0.62403 -0.28518,-0.51306 -2.39803,0.48381 -3.40237,-0.12594 -2.79868,-1.69913 0.42936,-1.11889 0.25527,-1.42717 -0.53138,-0.94099 -0.71608,0.44256 -1.16994,0.0708 -1.16994,-0.9584 0,-1.3753 -0.27096,-1.45658 -1.48817,-0.44639 -1.2052,1.00023 -1.60583,0.92844 -2.10699,-0.37755 -0.34035,-0.88695 -1.16723,-1.61263 -1.83752,-1.61263 -1.63841,0 -5.76218,-4.47181 -4.9098,-5.32419 0.3717,-0.37169 0.15081,-0.67581 -0.49085,-0.67581 -0.64167,0 -1.16667,-0.41723 -1.16667,-0.92718 0,-0.50995 1.39174,-0.75104 3.09276,-0.53577 2.32225,0.2939 2.85251,0.0889 2.12842,-0.82282 -1.12495,-1.41647 -0.79307,-4.54234 0.63375,-5.96916 0.65805,-0.65805 2.03213,-0.63149 4.06931,0.0787 2.31824,0.80814 3.08325,0.77717 3.10617,-0.12577 0.0167,-0.65889 0.49438,-0.40101 1.06146,0.57305 0.56708,0.97407 1.4223,1.52923 1.90049,1.23369 0.47819,-0.29554 1.19507,-0.0105 1.59305,0.63348 0.43764,0.70811 0.29126,0.90361 -0.37038,0.4947 -0.66501,-0.411 -1.03532,0.10279 -0.94436,1.31029 0.12965,1.72106 0.35533,1.80098 1.68948,0.59829 1.33266,-1.20136 1.97926,-0.9948 4.80563,1.5352 1.79617,1.60783 2.94625,2.92332 2.55572,2.92332 -0.39053,0 0.81206,1.12299 2.67244,2.49553 1.86037,1.37254 3.6353,2.88018 3.94428,3.3503 0.30898,0.47012 1.67674,1.4428 3.03948,2.16151 2.22193,1.17186 2.28934,1.37282 0.65305,1.9468 -1.75073,0.61412 -1.75218,0.69891 -0.0357,2.09296 0.9839,0.79909 1.4795,0.93657 1.10133,0.30549 -0.48015,-0.80127 0.44238,-1.04967 3.05805,-0.82343 2.06008,0.17819 3.74561,0.39146 3.74561,0.47393 0,0.7814 3.64919,0.56454 4.15054,-0.24666 0.36955,-0.59796 0.18938,-0.77553 -0.41062,-0.40471 -2.03578,1.25818 -1.92588,-1.86367 0.16257,-4.61817 5.55731,-7.32967 6.84881,-8.69627 7.71344,-8.1619 0.51349,0.31736 0.86918,0.20606 0.79042,-0.24732 -0.31432,-1.80942 0.1414,-3.32433 1.00003,-3.32433 0.49851,0 0.64214,1.0125 0.31919,2.25 -0.55376,2.1219 -0.48985,2.15279 1.12256,0.54249 0.94036,-0.93913 2.37172,-1.45348 3.18081,-1.14301 0.80908,0.31047 1.47106,0.0663 1.47106,-0.54249 0,-0.60884 0.47656,-1.10699 1.05902,-1.10699 0.58246,0 0.73793,0.51953 0.34549,1.15451 -0.44208,0.7153 -0.27432,0.88306 0.44098,0.44098 0.63498,-0.39244 1.15451,-0.16196 1.15451,0.51216 0,0.67413 0.31583,0.90985 0.70184,0.52384 0.38602,-0.38601 -0.49434,-1.81101 -1.95635,-3.16667 -2.55768,-2.37161 -4.3541,-3.27514 -3.40947,-1.71482 0.24973,0.4125 -0.14506,1.30348 -0.87732,1.97996 -1.07592,0.99396 -1.30276,0.85002 -1.18223,-0.75016 0.082,-1.08906 0.90481,-2.21995 1.82838,-2.51308 0.92356,-0.29312 1.92122,-1.4584 2.21701,-2.5895 0.41695,-1.59442 1.03112,-1.89996 2.7332,-1.35974 1.24008,0.39358 1.95148,0.30212 1.63485,-0.21019 -0.3083,-0.49884 0.42285,-1.51935 1.62477,-2.26779 1.95477,-1.21724 2.04832,-1.195 0.88676,0.21082 -1.54225,1.86656 -0.18018,3.06249 2.37236,2.08299 1.29188,-0.49574 1.53853,-0.32408 0.93574,0.65126 -0.53315,0.86265 -0.43124,1.08508 0.29228,0.63791 0.61096,-0.37759 0.85293,-1.3586 0.53772,-2.18003 -0.45876,-1.1955 -0.86683,-1.24972 -2.04522,-0.27175 -1.18361,0.98231 -1.43147,0.93831 -1.26474,-0.22448 0.39378,-2.74611 -0.0332,-4.06202 -1.10341,-3.40059 -0.5906,0.36501 -0.48235,-0.28343 0.24055,-1.44099 0.72291,-1.15755 1.70062,-2.10464 2.1727,-2.10464 0.47208,0 2.37586,-0.72012 4.23062,-1.60026 3.06726,-1.45551 3.23,-1.74255 1.79917,-3.17338 -1.43082,-1.43083 -1.26992,-1.83987 1.77884,-4.52218 1.84357,-1.62198 3.2283,-3.37741 3.07717,-3.90095 -0.15112,-0.52354 0.18559,-0.66737 0.74825,-0.31963 0.56266,0.34775 2.02394,-0.0688 3.24728,-0.92567 1.22334,-0.85686 1.76413,-1.55793 1.20176,-1.55793 -0.56238,0 -1.56251,0.54 -2.22251,1.2 -0.87574,0.87574 -1.2,0.88917 -1.2,0.0497 0,-0.63267 0.64303,-1.51017 1.42897,-1.95 0.78593,-0.43983 1.50593,-1.24969 1.6,-1.79969 0.0941,-0.55 0.57603,-0.8875 1.07103,-0.75 0.495,0.1375 0.9,-0.1376 0.9,-0.61133 0,-0.47373 1.06139,-0.65843 2.35864,-0.41044 1.52465,0.29145 2.56999,-0.0999 2.95633,-1.10665 0.77643,-2.02334 -1.27264,-3.29767 -2.41146,-1.49969 -0.59807,0.94423 -0.87771,0.99564 -0.8882,0.1633 -0.008,-0.66815 0.88021,-1.69409 1.97474,-2.27986 1.09452,-0.58577 1.88202,-1.61411 1.75,-2.28519 -0.13203,-0.67107 0.3559,-1.09649 1.08428,-0.94536 0.72838,0.15113 1.05328,-0.1638 0.72199,-0.69983 -0.65585,-1.06119 2.51879,-3.11787 4.63794,-3.00466 0.72366,0.0387 0.41574,0.45703 -0.68426,0.92971 -1.63041,0.70061 -1.68751,0.87242 -0.30902,0.92972 2.4842,0.10325 3.12133,-1.63331 1.08005,-2.94376 -1.62568,-1.04365 -1.62865,-1.09279 -0.0363,-0.5987 1.10695,0.34347 2.13826,-0.21571 2.84976,-1.54517 0.79882,-1.49261 0.80315,-1.89069 0.0153,-1.40375 -1.86158,1.15052 -1.21567,-1.02348 0.86298,-2.90463 1.08109,-0.97837 2.67662,-1.50234 3.55194,-1.16644 1.01974,0.39131 1.34153,0.20911 0.89805,-0.50845 -0.41985,-0.67934 -0.14585,-0.92017 0.69806,-0.61355 0.76406,0.2776 1.3017,0.93598 1.19475,1.46306 -0.10694,0.52709 0.37483,0.95834 1.07061,0.95834 1.57968,0 1.42758,-2.99329 -0.25513,-5.02083 -1.05677,-1.27334 -0.65886,-2.14184 2.44357,-5.33343 2.03825,-2.09682 3.10424,-2.91241 2.36888,-1.81241 -1.15541,1.72833 -1.1414,1.82499 0.10314,0.71161 0.79209,-0.70862 1.44539,-2.0459 1.45177,-2.97173 0.008,-1.19205 1.00921,-1.76499 3.42978,-1.96311 3.76323,-0.30801 5.59575,-1.27677 2.41516,-1.27677 -1.11111,0 -2,-0.66667 -2,-1.5 0,-0.825 0.55787,-1.5 1.23972,-1.5 0.77735,0 1.0294,-0.80424 0.67581,-2.15637 -0.42006,-1.60628 -0.22921,-1.94952 0.74812,-1.34549 0.87564,0.54117 1.07136,0.42145 0.58843,-0.35994 -0.39798,-0.64395 -1.0515,-0.96817 -1.45225,-0.72049 -0.40076,0.24768 -1.37896,0.0484 -2.17377,-0.44281 -1.16269,-0.71858 -0.66475,-1.71161 2.54774,-5.08094 2.19608,-2.30329 3.46146,-3.88935 2.81197,-3.52457 -0.6495,0.36478 -1.46356,0.20589 -1.80902,-0.35308 -1.0275,-1.66252 1.6699,-1.15428 3.89395,0.73369 1.66325,1.41192 1.81842,1.43449 0.80321,0.11678 -1.03718,-1.34623 -0.97437,-1.74216 0.35748,-2.25324 2.04908,-0.78631 3.6494,0.16293 2.8754,1.70556 -0.32587,0.6495 0.22929,0.26971 1.23369,-0.84396 1.0044,-1.11367 2.55907,-1.8787 3.45481,-1.70005 0.89574,0.17865 2.30467,-0.35124 3.13095,-1.17752 0.82629,-0.82628 1.73909,-1.26558 2.02845,-0.97621 0.28937,0.28936 1.89559,-0.18207 3.56939,-1.04762 4.18612,-2.16473 4.85997,-1.99763 4.7435,1.17626 -0.0729,1.98531 -0.56657,2.67311 -1.7755,2.47348 -0.92103,-0.15208 -2.00306,0.25494 -2.40451,0.90451 -0.45809,0.74119 -0.29996,0.9153 0.42459,0.4675 0.63498,-0.39244 1.15451,-0.21041 1.15451,0.40451 0,0.61492 0.375,0.88627 0.83333,0.60301 0.45834,-0.28327 0.83334,0.12038 0.83334,0.89699 0,0.77661 -0.29071,1.23236 -0.64602,1.01277 -0.3553,-0.21959 -0.54841,1.4877 -0.42913,3.79399 0.14067,2.71978 -0.36439,4.86858 -1.43732,6.11514 -0.90981,1.05704 -1.11786,1.60915 -0.46234,1.22691 0.82948,-0.48367 1.09218,0.14818 0.86402,2.07811 -0.18031,1.52519 -0.41468,4.34808 -0.52081,6.27308 -0.10613,1.925 -0.41994,2.9375 -0.69735,2.25 -0.27741,-0.6875 -0.94344,-1.25 -1.48007,-1.25 -0.53663,0 -0.69861,0.44831 -0.35997,0.99624 1.11986,1.81197 1.40365,5.00376 0.4449,5.00376 -0.51842,0 -0.94258,-0.49814 -0.94258,-1.10699 0,-0.60884 -0.66059,-0.85349 -1.46798,-0.54367 -1.81854,0.69784 -2.99998,-0.94209 -1.39382,-1.93475 0.78054,-0.4824 0.90114,-0.28727 0.3618,0.58541 -0.53935,0.87268 -0.41874,1.06782 0.3618,0.58541 1.83998,-1.13717 0.19689,-2.73881 -2.07119,-2.01895 -1.36096,0.43195 -1.81307,0.2789 -1.35682,-0.45932 0.41568,-0.67259 -0.12391,-1.10714 -1.37477,-1.10714 -1.13246,0 -2.05902,-0.375 -2.05902,-0.83333 0,-0.45834 -0.65521,-0.83334 -1.45601,-0.83334 -0.80081,0 -1.25339,0.32785 -1.00575,0.72855 0.24765,0.40071 -0.25067,0.99753 -1.10737,1.32627 -0.8567,0.32875 -1.27756,1.0509 -0.93524,1.60479 0.34232,0.55388 0.0709,1.00706 -0.60328,1.00706 -0.67413,0 -0.92157,0.30412 -0.54987,0.67581 0.79166,0.79167 -3.21623,5.32419 -4.70792,5.32419 -0.55925,0 -0.14331,-0.69982 0.92431,-1.55516 1.88679,-1.51164 1.88182,-1.52662 -0.17739,-0.53519 -1.16518,0.56099 -2.47483,0.69832 -2.91032,0.30517 -0.4355,-0.39315 -0.46811,-0.15232 -0.0725,0.53518 0.39564,0.6875 0.21623,1.25 -0.39869,1.25 -0.61492,0 -0.83992,0.45 -0.5,1 0.33992,0.55 0.16731,1 -0.38357,1 -0.55088,0 -0.82056,0.94006 -0.59929,2.08902 0.32357,1.68017 0.13233,1.86496 -0.97712,0.94419 -1.09308,-0.90717 -1.32321,-0.76995 -1.1086,0.66098 0.39797,2.65346 -2.49909,6.80443 -3.57021,5.11548 -0.65114,-1.02672 -0.83389,-0.98081 -0.8459,0.21249 -0.0212,2.10959 -5.96217,9.12872 -7.12055,8.4128 -0.51937,-0.32099 -0.87987,-0.21267 -0.80112,0.24071 0.35373,2.03626 -0.17983,3.3891 -1.10995,2.81425 -0.55897,-0.34546 -0.71445,-1.11655 -0.34549,-1.71353 0.41717,-0.675 0.20135,-0.79526 -0.57081,-0.31804 -0.68289,0.42205 -1.02159,1.60878 -0.75266,2.63716 0.41055,1.56996 0.18398,1.70658 -1.41289,0.85196 -1.29981,-0.69564 -1.90184,-0.69015 -1.90184,0.0173 0,1.96689 0.50566,2.52035 2,2.18907 2.10655,-0.46701 -3.89379,5.70802 -7.25,7.46107 -1.5125,0.79002 -2.75,1.9014 -2.75,2.46974 0,0.56833 0.5625,0.68931 1.25,0.26883 0.6875,-0.42048 -0.0531,0.79046 -1.6458,2.69098 -1.59269,1.90052 -3.39269,3.47595 -4,3.50095 -0.60731,0.025 -0.9971,0.5713 -0.8662,1.21401 0.1436,0.70505 -0.41728,0.9171 -1.41404,0.5346 -1.04958,-0.40276 -1.4073,-0.23793 -0.98091,0.45198 0.36912,0.59725 -0.71667,2.47373 -2.41288,4.16994 -1.69621,1.6962 -2.80666,3.08401 -2.46767,3.08401 0.339,0 0.0382,0.61897 -0.66855,1.37549 -1.35187,1.44718 -3.20731,1.54449 -4.51501,0.23679 -0.42842,-0.42842 -0.32894,-0.68816 0.22106,-0.57719 0.55,0.11096 1.675,0.13478 2.5,0.0529 1.17623,-0.1167 1.10608,-0.37789 -0.325,-1.21008 -2.12065,-1.23317 -2.58606,-0.93607 -3.15409,2.01347 -0.23105,1.19979 0.005,1.90134 0.53136,1.57629 1.24447,-0.76912 1.21089,1.17208 -0.0614,3.54939 -0.73187,1.36751 -1.83507,1.78106 -4.0152,1.50515 -1.72325,-0.21809 -2.75672,0.023 -2.42176,0.56498 0.32136,0.51998 0.97211,0.70573 1.4461,0.41279 0.47399,-0.29294 1.18743,-0.006 1.58541,0.6382 0.45192,0.73123 0.29014,0.90292 -0.4309,0.45729 -0.63498,-0.39244 -1.15451,-0.18186 -1.15451,0.46794 0,0.83209 -0.49199,0.77561 -1.66372,-0.19098 -1.5086,-1.24449 -1.55194,-1.16267 -0.46482,0.87755 1.03369,1.93994 0.9529,2.25211 -0.58628,2.26531 -1.51835,0.013 -1.56098,0.16021 -0.28518,0.98469 1.44833,0.93599 1.10272,1.18943 -1.91808,1.40656 -0.77995,0.0561 -1.6017,0.77502 -1.82613,1.59768 -0.36069,1.32216 -0.28493,1.32167 0.65277,-0.004 0.58345,-0.825 1.0677,-0.9926 1.07613,-0.37244 0.008,0.62015 -0.61593,1.65143 -1.38744,2.29173 -1.07718,0.89398 -1.52306,0.86437 -1.92106,-0.12755 -0.28506,-0.71046 -0.55382,-0.12398 -0.59724,1.30327 -0.0748,2.46016 -1.72989,4.5603 -5.07895,6.44485 -1.3288,0.74772 -1.33076,0.62241 -0.0172,-1.0979 1.41598,-1.85449 1.39346,-1.86902 -0.5,-0.32245 -1.09053,0.89074 -2.65777,1.39699 -3.48277,1.125 -1.21095,-0.39922 -1.25913,-0.23918 -0.25,0.83049 1.77542,1.88195 1.54805,4.3453 -0.57874,6.27001 -2.15677,1.95185 -3.60662,2.18318 -2.53832,0.40499 0.59902,-0.99707 0.44059,-0.99882 -0.78299,-0.009 -0.84368,0.68272 -1.90221,0.90772 -2.35229,0.5 -0.45007,-0.40773 -0.52612,-0.22982 -0.169,0.39536 0.78757,1.37871 -1.67911,3.64815 -2.831,2.60464 -0.45007,-0.40773 -0.47037,-0.13962 -0.0451,0.5958 0.55678,0.96287 1.07748,1.03285 1.86033,0.25 0.59792,-0.59792 1.78463,-1.08498 2.63713,-1.08235 0.97253,0.003 0.13215,1.30697 -2.25565,3.5 -2.09311,1.92237 -3.89311,3.44302 -4,3.37922 -0.10689,-0.0638 -0.94354,-0.31442 -1.85921,-0.55693 z m -9.36408,-21.18935 c -0.84591,-0.8459 -3.52762,-1.03826 -3.01981,-0.2166 0.25342,0.41005 1.15557,0.74555 2.00476,0.74555 0.84919,0 1.30596,-0.23803 1.01505,-0.52895 z m 19.87402,-1.68085 c -0.32569,-0.84872 -0.80663,-1.32866 -1.06875,-1.06653 -0.26213,0.26213 -0.17998,0.95654 0.18255,1.54313 0.98605,1.59546 1.56238,1.28551 0.8862,-0.4766 z m 10.33026,-1.11486 c -0.36189,-0.36189 -0.15679,-1.26189 0.45578,-2 0.70025,-0.84375 0.73675,-1.34201 0.0983,-1.34201 -1.21748,0 -2.33987,2.55623 -1.49386,3.40224 0.32877,0.32877 0.82276,0.59776 1.09776,0.59776 0.275,0 0.20391,-0.29609 -0.15799,-0.65799 z m -30.67534,-2.84201 c 0,-0.15731 -0.6,-0.51626 -1.33333,-0.79767 -0.73334,-0.28141 -1.33334,0.0776 -1.33334,0.79767 0,0.72013 0.6,1.07908 1.33334,0.79767 0.73333,-0.2814 1.33333,-0.64036 1.33333,-0.79767 z m 21,-0.5 c 0.59134,-1.10492 0.65928,-2 0.15181,-2 -0.5052,0 -1.1539,0.9 -1.44156,2 -0.28766,1.1 -0.35597,2 -0.15181,2 0.20415,0 0.85286,-0.9 1.44156,-2 z m -26.24377,-3.2841 c 0.69093,0.25021 1.00505,0.86133 0.69806,1.35806 -0.30699,0.49672 0.18946,0.61624 1.10323,0.2656 1.50147,-0.57617 1.4824,-0.7353 -0.19806,-1.65309 -1.0227,-0.55855 -2.19007,-1.504 -2.59415,-2.10101 -0.48403,-0.71514 -0.73991,-0.61723 -0.75,0.28699 -0.0119,1.0679 -0.3284,1.1126 -1.42628,0.20144 -0.9896,-0.8213 -1.60908,-0.85047 -2.07433,-0.0977 -0.36485,0.59033 -0.29241,1.0089 0.16097,0.93014 2.07447,-0.36037 2.4634,0.23029 1.21401,1.84364 -1.26982,1.63973 -1.23028,1.64796 0.62755,0.13049 1.09052,-0.89073 2.54807,-1.4148 3.239,-1.16459 z m -17.75623,0.85553 c 0,-0.86206 -3.17273,-3.57143 -4.18221,-3.57143 -0.57165,0 0.023,0.88503 1.32143,1.96673 2.50529,2.08713 2.86078,2.28653 2.86078,1.6047 z m 50.92105,-2.85661 c -0.0595,-0.91564 -0.20316,-0.90698 -0.58333,0.0352 -0.27741,0.6875 -1.25439,1.24311 -2.17105,1.23469 -1.44151,-0.0132 -1.46402,-0.14628 -0.16667,-0.98469 0.825,-0.53315 1.05,-0.96195 0.5,-0.95288 -0.55,0.009 -1.9,0.73772 -3,1.61922 -1.62436,1.3017 -1.67131,1.48944 -0.25,0.99958 0.9625,-0.33173 1.75,-0.15144 1.75,0.40065 0,0.64954 0.70583,0.62605 2,-0.0666 1.1,-0.5887 1.96447,-1.61703 1.92105,-2.28518 z m -47.35209,-2.9837 c 0.14051,-0.95735 -0.16237,-1.48241 -0.67306,-1.16678 -0.51069,0.31562 -0.62236,1.06924 -0.24817,1.6747 0.42336,0.685 0.11196,0.88272 -0.82437,0.52342 -0.8276,-0.31758 -2.13541,-0.18764 -2.90624,0.28876 -0.95896,0.59268 -0.48613,0.79583 1.49742,0.64337 1.88275,-0.14472 2.9885,-0.83299 3.15442,-1.96347 z m 3.66683,-3.93745 c -0.51335,-1.96306 -1.49179,-1.65712 -1.81846,0.56861 -0.10529,0.71741 0.37099,1.30439 1.05841,1.30439 0.72927,0 1.04584,-0.78013 0.76005,-1.873 z m -3.93812,-0.46034 c -0.28141,-0.73333 -0.64036,-1.33333 -0.79767,-1.33333 -0.15731,0 -0.51626,0.6 -0.79767,1.33333 -0.28141,0.73334 0.0775,1.33334 0.79767,1.33334 0.72012,0 1.07908,-0.6 0.79767,-1.33334 z m -2.80475,-0.32187 c 0.35034,-0.56686 -0.0511,-0.73451 -0.94098,-0.39302 -1.73242,0.6648 -2.04939,1.38156 -0.61096,1.38156 0.51754,0 1.21592,-0.44484 1.55194,-0.98854 z m 105.3598,-40.80462 c 1.93518,-2.71772 1.93756,-2.79703 0.0878,-2.93637 -1.04562,-0.0788 -2.15835,0.27301 -2.47275,0.78171 -0.32182,0.52072 0.21583,0.6296 1.23031,0.24914 1.55962,-0.5849 1.62401,-0.45688 0.47883,0.95201 -0.76826,0.94516 -2.0126,1.36321 -2.96725,0.99688 -1.45879,-0.55979 -1.47873,-0.44465 -0.17688,1.0214 1.85465,2.0886 1.5052,2.186 3.81996,-1.06477 z m -5.85272,-6.20684 c 0,-0.55 -0.19844,-1 -0.44098,-1 -0.24254,0 -0.7191,0.45 -1.05902,1 -0.33992,0.55 -0.14148,1 0.44098,1 0.58246,0 1.05902,-0.45 1.05902,-1 z m 10.92611,-2.41097 c 0.89667,-1.08042 0.88916,-1.58516 -0.0321,-2.15451 -0.76272,-0.47138 -0.9419,-0.32096 -0.48954,0.41097 0.39244,0.63498 0.23697,1.15451 -0.34549,1.15451 -0.58246,0 -1.05902,0.45 -1.05902,1 0,1.37053 0.54391,1.25448 1.92611,-0.41097 z m -2.92611,-10.58903 c 0,-0.55 -0.19844,-1 -0.44098,-1 -0.24254,0 -0.7191,0.45 -1.05902,1 -0.33992,0.55 -0.14148,1 0.44098,1 0.58246,0 1.05902,-0.45 1.05902,-1 z m 30.49292,-5.98854 c 0.35034,-0.56686 -0.0511,-0.73451 -0.94098,-0.39302 -1.73242,0.6648 -2.04939,1.38156 -0.61096,1.38156 0.51754,0 1.21592,-0.44484 1.55194,-0.98854 z m 1.75708,-24.67374 c -0.6875,-0.27741 -1.8125,-0.27741 -2.5,0 -0.6875,0.27741 -0.125,0.50439 1.25,0.50439 1.375,0 1.9375,-0.22698 1.25,-0.50439 z m -123.7073,117.73138 c -1.00194,-1.62117 1.17529,-2.11382 2.46644,-0.55809 1.00476,1.21067 0.94351,1.48899 -0.32768,1.48899 -0.85988,0 -1.82232,-0.4189 -2.13876,-0.9309 z m -13.0427,-31.0691 c 0.33992,-0.55 0.81648,-1 1.05902,-1 0.24254,0 0.44098,0.45 0.44098,1 0,0.55 -0.47656,1 -1.05902,1 -0.58246,0 -0.7809,-0.45 -0.44098,-1 z m 97.5,-52.37755 c 0,-0.20766 0.7875,-0.99516 1.75,-1.75 1.58605,-1.24387 1.62143,-1.2085 0.37755,0.37755 -1.30637,1.66575 -2.12755,2.19548 -2.12755,1.37245 z m 12.48992,-26.63876 c -0.34547,-0.55897 -0.95601,-0.81366 -1.35676,-0.56598 -1.04537,0.64607 -3.70808,-1.17612 -2.89978,-1.98442 0.37151,-0.37151 2.91904,-0.73348 5.66119,-0.80438 l 4.98572,-0.12891 -2.11446,2.25 c -2.32857,2.47784 -3.32866,2.76638 -4.27591,1.23369 z m 2.90707,-0.81702 c 0.28327,-0.45834 -0.12038,-0.83334 -0.89699,-0.83334 -0.77661,0 -1.18026,0.375 -0.89699,0.83334 0.28326,0.45833 0.68691,0.83333 0.89699,0.83333 0.21008,0 0.61373,-0.375 0.89699,-0.83333 z"
         id="path4" />
      <path
         style="fill:#135b2e"
         d="m 335.51463,283.10412 c 0.72187,-0.28887 1.58437,-0.25335 1.91667,0.0789 0.33229,0.3323 -0.25834,0.56865 -1.3125,0.52522 -1.16495,-0.048 -1.4019,-0.28494 -0.60417,-0.60416 z m -5.53697,-12.56689 c -1.44775,-1.59795 -1.44684,-1.75 0.0105,-1.75 0.87779,0 1.89305,0.48068 2.25614,1.06818 0.3631,0.58749 1.31302,0.81765 2.11096,0.51145 0.79793,-0.3062 1.19961,-0.15031 0.89262,0.34642 -0.307,0.49672 0.007,1.10964 0.69806,1.36203 0.69093,0.2524 -0.0125,0.40334 -1.56325,0.33541 -1.55072,-0.0679 -3.53296,-0.91099 -4.40499,-1.87349 z m 8.0869,-1.9726 c -0.37492,-0.60662 -0.21162,-0.80223 0.36975,-0.44292 1.1451,0.70771 3.54663,-1.62187 2.75914,-2.67649 -0.27022,-0.36189 -0.19522,-0.43689 0.16667,-0.16666 0.36189,0.27022 1.22576,0.0201 1.91971,-0.55581 0.933,-0.77433 1.20039,-0.62928 1.02632,0.55673 -0.31303,2.13281 -5.32382,4.77015 -6.24159,3.28515 z m -17.05688,-7.14861 c 0.10695,-0.57083 -0.36805,-1.11458 -1.05555,-1.20833 -0.6875,-0.0937 -1.7,-0.22671 -2.25,-0.29546 -0.55,-0.0688 -1,-0.65 -1,-1.29167 0,-0.64166 0.2961,-0.87057 0.65799,-0.50867 0.36189,0.36189 1.34828,0.0994 2.19196,-0.58333 1.22358,-0.99015 1.38201,-0.9884 0.78299,0.009 -0.41304,0.6875 -0.38266,1.25 0.0675,1.25 0.45015,0 1.33369,0.825 1.9634,1.83333 0.89776,1.43754 0.85374,1.83334 -0.2039,1.83334 -0.74185,0 -1.26133,-0.46705 -1.15439,-1.03788 z m 26.98581,-2.29115 c -0.89034,-1.88661 -0.88483,-2.36035 0.0236,-2.0298 0.65176,0.23715 1.93841,-0.22397 2.85921,-1.02471 2.13668,-1.85808 2.00202,0.19951 -0.22075,3.37296 l -1.50069,2.14253 z m -33.79136,-2.33764 c -0.33992,-0.55 0.11008,-1 1,-1 0.88992,0 1.33992,0.45 1,1 -0.33992,0.55 -0.78992,1 -1,1 -0.21008,0 -0.66008,-0.45 -1,-1 z m 7.95125,-4.07888 c -0.25343,-0.41005 0.20334,-0.64808 1.01504,-0.52894 2.08959,0.30668 2.84115,1.27449 0.98972,1.27449 -0.84919,0 -1.75134,-0.3355 -2.00476,-0.74555 z m 7.54875,-0.42112 c -1.03816,-1.25091 -0.90224,-1.5 0.81854,-1.5 1.13488,0 2.33836,0.44485 2.67438,0.98855 0.3629,0.58718 -0.0857,0.72119 -1.10503,0.33006 -1.16423,-0.44676 -1.48349,-0.28231 -0.99292,0.51145 1.03346,1.67218 0.0794,1.44644 -1.39497,-0.33006 z m 8.37935,0.30479 c -0.34573,-0.5594 0.87145,-2.43182 2.70484,-4.16094 1.83339,-1.72912 2.53696,-2.17802 1.56349,-0.99756 -1.37321,1.66521 -1.47606,2.26391 -0.45881,2.67105 0.98299,0.39343 0.99829,0.54453 0.0611,0.60371 -0.6875,0.0434 -1.25,0.55551 -1.25,1.13797 0,0.58246 0.5625,0.73531 1.25,0.33967 0.6875,-0.39564 0.89947,-0.33417 0.47106,0.1366 -1.1606,1.2753 -3.62553,1.42831 -4.34171,0.2695 z m 6.07953,-0.87132 c -0.36253,-0.58659 -0.44468,-1.281 -0.18255,-1.54313 0.26212,-0.26213 0.74306,0.21781 1.06875,1.06653 0.67618,1.76211 0.0999,2.07206 -0.8862,0.4766 z m 12.62007,-1.5168 c 0.048,-1.16494 0.28494,-1.4019 0.60416,-0.60417 0.28887,0.72188 0.25335,1.58438 -0.0789,1.91667 -0.3323,0.33229 -0.56864,-0.25834 -0.52522,-1.3125 z m -51.42812,-1.25 c -1.41467,-1.56319 -1.4375,-1.83334 -0.15499,-1.83334 0.82729,0 1.50416,0.62656 1.50416,1.39236 0,0.76579 0.45,1.11423 1,0.77431 0.55,-0.33992 1,-0.14147 1,0.44098 0,1.61405 -1.502,1.26679 -3.34917,-0.77431 z m 49.08474,1.23557 c -0.84601,-0.84601 0.27638,-3.40224 1.49386,-3.40224 0.63844,0 0.60194,0.49826 -0.0983,1.34201 -0.61257,0.73811 -0.81767,1.63811 -0.45578,2 0.3619,0.3619 0.43299,0.65799 0.15799,0.65799 -0.275,0 -0.76899,-0.26899 -1.09776,-0.59776 z m 76.56409,-5.40224 c 0,-3.025 0.18747,-4.2625 0.41659,-2.75 0.22913,1.5125 0.22913,3.9875 0,5.5 -0.22912,1.5125 -0.41659,0.275 -0.41659,-2.75 z m -108.96633,2.5 c 0,-0.72012 0.6,-1.07908 1.33334,-0.79767 0.73333,0.28141 1.33333,0.64036 1.33333,0.79767 0,0.15731 -0.6,0.51627 -1.33333,0.79767 -0.73334,0.28141 -1.33334,-0.0775 -1.33334,-0.79767 z m 22.37692,-0.5 c 0.28766,-1.1 0.93636,-2 1.44156,-2 0.50747,0 0.43953,0.89508 -0.15181,2 -0.5887,1.1 -1.23741,2 -1.44156,2 -0.20416,0 -0.13585,-0.9 0.15181,-2 z m 14.3687,1.30902 c -0.11408,-1.72088 1.6556,-2.54754 2.50646,-1.17082 0.43129,0.69784 0.29172,0.9039 -0.34549,0.51008 -0.58801,-0.36341 -1.29701,-0.0954 -1.57556,0.59549 -0.3625,0.89914 -0.52891,0.91769 -0.58541,0.0652 z m -43.18927,-3.55902 c 1.24939,-1.61335 0.86046,-2.20401 -1.21401,-1.84364 -0.45338,0.0788 -0.52582,-0.33981 -0.16097,-0.93014 0.46525,-0.7528 1.08473,-0.72363 2.07433,0.0977 1.08063,0.89684 1.41097,0.89149 1.41097,-0.0229 0,-0.76499 0.56452,-0.62936 1.57143,0.37755 0.86428,0.86429 2.10178,1.55712 2.75,1.53963 0.64821,-0.0175 0.30506,-0.69249 -0.76256,-1.5 -1.06762,-0.80751 -1.47487,-1.4682 -0.90499,-1.4682 0.56988,0 1.88859,1.0125 2.93048,2.25 1.04188,1.2375 1.50245,1.92833 1.0235,1.53519 -0.47895,-0.39315 -1.76596,-0.23576 -2.86002,0.34976 -1.26509,0.67706 -1.76099,0.69534 -1.36229,0.0502 1.09101,-1.76528 -1.80121,-1.99309 -3.86832,-0.30469 -1.85783,1.51747 -1.89737,1.50924 -0.62755,-0.13049 z m -17.84516,-2.37445 c -4.38807,-3.11526 -4.90297,-3.6422 -2.7527,-2.81706 1.27289,0.48845 1.57779,0.2653 1.15235,-0.84339 -0.3376,-0.87976 0.27969,-2.10871 1.48229,-2.95104 1.13345,-0.7939 1.86011,-1.64416 1.6148,-1.88947 -0.24531,-0.24531 0.45129,-0.44602 1.548,-0.44602 1.9175,0 1.91045,0.063 -0.18365,1.64263 -1.62911,1.22884 -1.85747,1.84052 -0.90654,2.42823 0.92897,0.57413 0.64987,1.11809 -1.03689,2.02081 -2.27945,1.21992 -2.28226,1.2434 -0.22748,1.89556 1.14429,0.36318 2.33299,1.31821 2.64153,2.12227 0.30855,0.80406 0.46262,1.42339 0.34238,1.37629 -0.12023,-0.0471 -1.77358,-1.18956 -3.67409,-2.53881 z m 50.95548,1.69102 c 0,-0.55209 -0.7875,-0.73238 -1.75,-0.40065 -1.42131,0.48986 -1.37436,0.30212 0.25,-0.99958 1.1,-0.8815 2.45,-1.61015 3,-1.61922 0.55,-0.009 0.325,0.41973 -0.5,0.95288 -1.29735,0.83841 -1.27484,0.97144 0.16667,0.98469 0.91666,0.008 1.89364,-0.54719 2.17105,-1.23469 0.38017,-0.94216 0.52383,-0.95082 0.58333,-0.0352 0.0434,0.66815 -0.82105,1.69648 -1.92105,2.28518 -1.29417,0.69262 -2,0.71611 -2,0.0666 z m 14.5841,-2.70801 c -0.52667,-1.37247 -0.38034,-1.43434 0.89301,-0.37756 1.71463,1.42302 2.10763,0.004 0.45623,-1.64766 -0.75555,-0.75555 -0.39096,-0.99694 1.25,-0.82762 3.07967,0.31776 3.0354,0.21595 1.08463,2.49428 -2.07983,2.42907 -2.8602,2.50503 -3.68387,0.35856 z m -62.66698,-1.30734 c 0.77083,-0.4764 2.07864,-0.60634 2.90624,-0.28876 0.93633,0.3593 1.24773,0.16158 0.82437,-0.52342 -0.37419,-0.60546 -0.26252,-1.35908 0.24817,-1.6747 0.51069,-0.31563 0.81357,0.20943 0.67306,1.16678 -0.16592,1.13048 -1.27167,1.81875 -3.15442,1.96347 -1.98355,0.15246 -2.45638,-0.0507 -1.49742,-0.64337 z m 51.08288,-1.04553 c 0,-2.58229 2.05708,-4.92126 3.76525,-4.28122 1.46425,0.54864 1.53791,0.40759 0.47242,-0.90456 -1.02882,-1.26698 -0.98257,-1.78673 0.25,-2.80967 1.0394,-0.86263 1.51233,-0.90412 1.51233,-0.13268 0,0.61734 -0.51098,1.12244 -1.13551,1.12244 -0.62453,0 0.37855,1.32192 2.22907,2.9376 1.85051,1.61568 3.03649,3.26568 2.63551,3.66667 -0.40099,0.40098 -0.72907,0.17751 -0.72907,-0.49662 0,-0.67412 -0.51953,-0.9046 -1.15451,-0.51216 -0.7153,0.44208 -0.88306,0.27432 -0.44098,-0.44098 0.39244,-0.63498 0.23697,-1.15451 -0.34549,-1.15451 -0.58246,0 -1.05902,0.49815 -1.05902,1.10699 0,0.60884 -0.66198,0.85296 -1.47106,0.54249 -0.80909,-0.31047 -2.15909,0.12352 -3,0.96444 -0.91257,0.91257 -1.52894,1.0705 -1.52894,0.39177 z m 79.29966,-5.00569 c 0,-3.025 0.18747,-4.2625 0.41659,-2.75 0.22913,1.5125 0.22913,3.9875 0,5.5 -0.22912,1.5125 -0.41659,0.275 -0.41659,-2.75 z m -120.04856,3.43762 c 0.34927,-0.58431 -0.23639,-2.38431 -1.30145,-4 -2.10866,-3.19883 -2.46218,-2.91588 -1.03777,0.83062 0.67744,1.7818 0.57191,2.39843 -0.41048,2.39843 -0.74897,0 -1.16768,-0.80323 -0.96563,-1.8524 0.24949,-1.29551 -0.55733,-2.22537 -2.68377,-3.09305 -2.97748,-1.21494 -3.00044,-1.2769 -1.10793,-2.9896 1.86344,-1.6864 2.07794,-1.58921 5.99747,2.71759 3.61832,3.97582 3.88966,4.60849 2.46973,5.75866 -0.87735,0.71067 -1.30943,0.81406 -0.96017,0.22975 z m -4.2511,-7.43762 c 0,-0.55 -0.19844,-1 -0.44098,-1 -0.24254,0 -0.7191,0.45 -1.05902,1 -0.33992,0.55 -0.14148,1 0.44098,1 0.58246,0 1.05902,-0.45 1.05902,-1 z m -3.29767,4.33333 c 0.28141,-0.73333 0.64036,-1.33333 0.79767,-1.33333 0.15731,0 0.51626,0.6 0.79767,1.33333 0.28141,0.73334 -0.0775,1.33334 -0.79767,1.33334 -0.72013,0 -1.07908,-0.6 -0.79767,-1.33334 z m 68.32808,0.35765 c -0.0167,-0.99495 -0.44091,-1.55531 -0.94263,-1.24523 -0.50171,0.31008 -0.76114,-0.22587 -0.57651,-1.19099 0.18464,-0.96512 0.37014,-2.09226 0.41222,-2.50476 0.11988,-1.17517 1.51911,-0.88556 3.63538,0.75246 1.88192,1.45662 1.88274,1.48194 0.0271,0.83006 -1.31689,-0.46262 -1.68998,-0.30986 -1.19587,0.48962 0.39499,0.63911 0.25749,1.95309 -0.30555,2.91994 -0.96908,1.6641 -1.02534,1.66137 -1.05412,-0.0511 z m 0.63626,-3.14699 c 0,-0.80081 -0.38234,-1.21971 -0.84965,-0.9309 -0.4673,0.28881 -0.59075,0.94401 -0.27432,1.45601 0.80863,1.30838 1.12397,1.16106 1.12397,-0.52511 z m -4.15713,-2.55942 c 0.60279,-0.97534 0.35614,-1.147 -0.93574,-0.65126 -2.55254,0.9795 -3.91461,-0.21643 -2.37236,-2.08299 1.16156,-1.40582 1.06801,-1.42806 -0.88676,-0.21082 -1.20192,0.74844 -1.96286,1.72074 -1.69098,2.16065 0.27188,0.43992 0.0443,0.79985 -0.50567,0.79985 -1.77125,0 -2.29598,-1.99448 -0.68716,-2.61185 0.8567,-0.32874 1.34584,-0.94042 1.08697,-1.35929 -0.25887,-0.41886 0.34371,-1.49858 1.33907,-2.39937 1.94954,-1.7643 2.08865,-1.53192 2.21269,3.6961 0.0333,1.40199 0.35117,1.57009 1.37007,0.72448 0.99296,-0.82408 1.47095,-0.72536 1.89987,0.39238 0.31521,0.82143 0.0732,1.80244 -0.53772,2.18003 -0.72352,0.44717 -0.82543,0.22474 -0.29228,-0.63791 z m 62.87582,-12.98457 c 0,-6.875 0.15977,-9.6875 0.35504,-6.25 0.19527,3.4375 0.19527,9.0625 0,12.5 -0.19527,3.4375 -0.35504,0.625 -0.35504,-6.25 z m -50.44034,8.75 c 0.71493,-0.9625 0.93376,-1.75 0.48629,-1.75 -0.44746,0 0.0592,-0.63821 1.12599,-1.41824 3.0176,-2.20652 2.94183,-1.01342 -0.13354,2.10276 -1.52823,1.54852 -2.19367,2.02798 -1.47874,1.06548 z m -86.63515,-5.25 c 0.006,-3.3 0.1923,-4.52944 0.41486,-2.73209 0.22256,1.79735 0.21797,4.49735 -0.0102,6 -0.22818,1.50265 -0.41027,0.0321 -0.40466,-3.26791 z m 74.76582,-2.25 c 1.33337,-1.5125 2.51538,-2.91607 2.62669,-3.11905 0.11131,-0.20297 0.88584,0.31441 1.72117,1.14974 1.35838,1.35839 1.16263,1.6878 -1.85351,3.11905 -4.74478,2.25155 -5.27669,2.00637 -2.49435,-1.14974 z m 19.92431,-3.21481 c 0,-0.53065 1.0125,-1.49613 2.25,-2.14551 2.23794,-1.17437 2.23979,-1.16919 0.34501,0.96481 -2.11633,2.38354 -2.59501,2.60133 -2.59501,1.1807 z m -12,-5.59742 c 0,-0.31935 0.675,-1.25563 1.5,-2.08063 0.825,-0.825 1.5,-1.18775 1.5,-0.80612 0,0.38163 0.68587,0.12465 1.52417,-0.57107 0.83829,-0.69572 1.70609,-1.08302 1.92845,-0.86066 0.22236,0.22236 -1.13852,1.41562 -3.02417,2.65169 -1.88565,1.23608 -3.42845,1.98613 -3.42845,1.66679 z m 19.73557,-4.03553 c -1.08588,-1.08588 0.40208,-3.28665 1.84719,-2.73211 0.84684,0.32497 1.41724,-0.0792 1.41724,-1.00412 0,-0.85139 0.375,-1.77974 0.83333,-2.063 1.75465,-1.08443 0.75358,2.98347 -1.14357,4.64699 -2.27247,1.99261 -2.15833,1.9481 -2.95419,1.15224 z m -12.65662,-4.02979 c -0.0434,-0.62016 0.59605,-1.68776 1.42105,-2.37245 0.825,-0.68469 1.5,-0.94705 1.5,-0.58302 0,0.36403 0.62777,0.0816 1.39504,-0.62755 0.76727,-0.70919 1.20993,-1.59583 0.98369,-1.97033 -0.22625,-0.3745 -0.0244,-0.92005 0.44852,-1.21233 0.72807,-0.44997 0.80244,1.12526 0.27194,5.75981 -0.0545,0.47662 -1.20849,0.65452 -2.5643,0.39534 -1.35582,-0.25918 -2.67029,0.0259 -2.92106,0.63342 -0.32596,0.78975 -0.47844,0.78322 -0.53488,-0.0229 z m 19.95381,-6.10435 c -1.30165,-1.46272 -1.28169,-1.5776 0.17688,-1.01789 0.95465,0.36633 2.19899,-0.0517 2.96725,-0.99688 1.14518,-1.40889 1.08079,-1.53691 -0.47883,-0.95201 -1.09039,0.40893 -1.55874,0.28228 -1.18606,-0.32074 0.33873,-0.54808 1.68577,-0.8025 2.99341,-0.56538 1.62559,0.29478 2.51749,-0.098 2.82006,-1.24203 0.3951,-1.49386 0.45496,-1.49875 0.55853,-0.0456 0.0638,0.89515 -0.559,2.18775 -1.384,2.87244 -0.825,0.68469 -1.5,0.91494 -1.5,0.51166 0,-0.40327 -0.7875,0.19793 -1.75,1.33601 -1.61663,1.91154 -1.86182,1.94358 -3.21724,0.42043 z m -9.54014,-5.28004 c -0.40808,-0.66028 0.20614,-1.35803 1.4913,-1.6941 1.32563,-0.34666 1.74739,-0.84199 1.07224,-1.25925 -0.68316,-0.42222 -0.12447,-1.13818 1.44682,-1.85411 2.46168,-1.12162 2.51201,-1.08038 1.31381,1.07655 -0.68526,1.23357 -1.26187,2.68669 -1.28136,3.22916 -0.0514,1.4303 -3.22547,1.82423 -4.04281,0.50175 z m 3.23655,-0.59223 c -0.3323,-0.33229 -1.1948,-0.36781 -1.91667,-0.0789 -0.79773,0.31922 -0.56078,0.55618 0.60417,0.60416 1.05416,0.0434 1.64479,-0.19292 1.3125,-0.52522 z m 2.77083,-1.39583 c 0.33992,-0.55 0.81648,-1 1.05902,-1 0.24254,0 0.44098,0.45 0.44098,1 0,0.55 -0.47656,1 -1.05902,1 -0.58246,0 -0.7809,-0.45 -0.44098,-1 z m 10.5,-2 c 0,-0.55 0.47656,-1 1.05902,-1 0.58246,0 0.73793,-0.51953 0.34549,-1.15451 -0.45236,-0.73193 -0.27318,-0.88235 0.48954,-0.41097 0.92122,0.56935 0.92873,1.07409 0.0321,2.15451 -1.3822,1.66545 -1.92611,1.7815 -1.92611,0.41097 z m 4.33333,-1.46032 c 0,-0.78571 0.4875,-1.34107 1.08334,-1.23412 0.59583,0.10694 0.97083,-0.36806 0.83333,-1.05556 -0.1375,-0.6875 0.22656,-1.25 0.80902,-1.25 0.58246,0 0.7809,-0.45 0.44098,-1 -0.33992,-0.55 -0.11492,-1 0.5,-1 0.61492,0 0.79433,-0.5625 0.39869,-1.25 -0.39564,-0.6875 -0.36303,-0.92833 0.0725,-0.53518 0.43549,0.39315 1.74514,0.25582 2.91032,-0.30517 2.09353,-1.00795 2.09493,-1.00113 0.11852,0.57823 -1.1,0.87902 -1.94078,1.91634 -1.8684,2.30517 0.16786,0.90177 -1.67169,3.34848 -3.71493,4.94108 -1.28148,0.99884 -1.58334,0.96177 -1.58334,-0.19445 z m -8.02778,-3.83135 c 0.10695,-0.52708 -0.43069,-1.18546 -1.19475,-1.46306 -0.84391,-0.30662 -1.11791,-0.0658 -0.69806,0.61355 0.43914,0.71054 0.12853,0.90238 -0.85191,0.52615 -1.33013,-0.51042 -1.26137,-0.95021 0.49831,-3.18728 2.09536,-2.66382 4.94086,-3.81692 4.94086,-2.00222 0,0.56018 -0.73865,0.73506 -1.64144,0.38863 -1.40622,-0.53962 -1.45041,-0.39969 -0.30832,0.97644 1.74231,2.09936 1.93423,5.10613 0.32592,5.10613 -0.69578,0 -1.17755,-0.43125 -1.07061,-0.95834 z m 31.97348,-5.75032 c -1.91846,-1.71415 -2.79226,-3.14081 -2.16218,-3.53023 0.58158,-0.35943 1.5582,-0.15272 2.17028,0.45935 0.61208,0.61208 0.72902,1.11287 0.25986,1.11287 -0.46916,0 0.18799,0.90286 1.46032,2.00634 1.27234,1.10349 2.12838,2.1913 1.90232,2.41736 -0.22605,0.22606 -1.85982,-0.88351 -3.6306,-2.46569 z m 2.35934,-3.45801 c -0.31658,-0.825 -0.13972,-1.5 0.39301,-1.5 0.53274,0 0.96862,0.675 0.96862,1.5 0,0.825 -0.17686,1.5 -0.39301,1.5 -0.21616,0 -0.65203,-0.675 -0.96862,-1.5 z m -13.40391,-0.88068 c 0.95395,-0.72439 1.51645,-1.53508 1.25,-1.80153 -0.26646,-0.26645 0.19241,-0.48446 1.0197,-0.48446 1.28251,0 1.25967,0.27015 -0.15499,1.83334 -0.91253,1.00833 -2.1519,1.81902 -2.75416,1.80153 -0.60226,-0.0175 -0.31451,-0.62449 0.63945,-1.34888 z m -16.23446,0.003 c 0,-0.20766 0.7875,-0.99516 1.75,-1.75 1.58605,-1.24387 1.62143,-1.2085 0.37755,0.37755 -1.30637,1.66575 -2.12755,2.19548 -2.12755,1.37245 z m 26,-1.01546 c 0,-0.21616 0.69837,-0.661 1.55194,-0.98855 0.88992,-0.34149 1.29132,-0.17384 0.94098,0.39302 -0.58726,0.9502 -2.49292,1.40544 -2.49292,0.59553 z m -21.51286,-4.62779 c -0.25581,-0.41392 0.29131,-1.36607 1.21583,-2.11589 0.96475,-0.78245 1.37981,-0.86119 0.97416,-0.1848 -0.44366,0.73976 0.13638,1.30934 1.55804,1.52994 2.07103,0.32137 2.02747,0.40158 -0.50904,0.93739 -1.52562,0.32227 -2.98317,0.24728 -3.23899,-0.16664 z m 1.96411,-8.05808 c -0.25343,-0.41005 0.20334,-0.64808 1.01504,-0.52894 2.08959,0.30668 2.84115,1.27449 0.98972,1.27449 -0.84919,0 -1.75134,-0.3355 -2.00476,-0.74555 z m -3.24523,-3.1151 c -0.66331,-0.66331 -1.20602,-1.65602 -1.20602,-2.20602 0,-0.55555 0.53333,-0.46667 1.2,0.2 1.71225,1.71225 3.2851,1.48944 1.83342,-0.25972 -1.00451,-1.21037 -0.85819,-1.3917 0.85653,-1.06147 1.1374,0.21904 2.32901,-0.0241 2.64804,-0.54028 0.31902,-0.51619 -0.64651,-0.93853 -2.14564,-0.93853 -3.50281,0 -2.26551,-1.31105 1.39905,-1.48245 1.52457,-0.0713 3.2692,-0.43697 3.87697,-0.81259 0.60776,-0.37561 1.6968,0.0996 2.42009,1.05605 1.11968,1.4806 1.1059,1.55236 -0.0927,0.48297 -1.15881,-1.03388 -2.13076,-0.54647 -5.49575,2.75602 -3.19086,3.13159 -4.35263,3.74738 -5.29398,2.80602 z m 29.81739,-3.80602 c 0.41636,-2.92454 -0.0281,-4.11541 -1.27341,-3.41231 -0.95806,0.5409 -0.97841,0.41154 -0.0871,-0.55385 1.60016,-1.73323 3.30178,-0.44657 2.80702,2.1225 -0.46996,2.44033 -1.76674,4.09318 -1.44648,1.84366 z m -15.69008,-3.47189 c 0,-0.79207 0.33657,-1.23212 0.74793,-0.97789 0.41135,0.25423 0.97583,-0.10306 1.25438,-0.79399 0.31556,-0.7827 0.53622,-0.8312 0.58541,-0.12867 0.0434,0.62015 -0.52105,1.62551 -1.25438,2.23412 -1.00614,0.83502 -1.33334,0.75316 -1.33334,-0.33357 z m 4.66667,-2.52811 c 0.825,-0.53315 2.175,-0.96937 3,-0.96937 1.33333,0 1.33333,0.10771 0,0.96937 -0.825,0.53316 -2.175,0.96938 -3,0.96938 -1.33333,0 -1.33333,-0.10771 0,-0.96938 z m 5.75,0.33772 c 0.6875,-0.27741 1.8125,-0.27741 2.5,0 0.6875,0.27741 0.125,0.50439 -1.25,0.50439 -1.375,0 -1.9375,-0.22698 -1.25,-0.50439 z"
         id="path3" />
      <path
         style="fill:#020202"
         d="m 351.28784,319.79524 c -21.81617,-11.216 -32.88624,-19.00563 -41.52255,-29.218 -9.13153,-10.79796 -13.44113,-20.67154 -14.74859,-33.79001 l -0.64783,-6.5 5.86221,5.3551 c 3.22421,2.9453 6.89919,6.03455 8.16663,6.86501 1.26743,0.83045 2.30442,2.15108 2.30442,2.93474 0,3.9361 11.81389,21.10482 16.10121,23.39932 1.73384,0.92792 1.89879,0.62665 1.89879,-3.46796 v -4.48416 l 3.58575,1.49823 c 4.51508,1.88652 8.83508,0.6592 12.9993,-3.69312 l 2.91495,-3.04661 0.5,14.30865 0.5,14.30866 4.5,2.20204 c 2.475,1.21113 4.8375,2.22861 5.25,2.26108 0.4125,0.0325 0.75,-10.29488 0.75,-22.94964 v -23.00866 l 2.83718,-3.91661 c 1.56045,-2.15414 5.83545,-7.15502 9.5,-11.11308 l 6.66282,-7.19646 v 34.12174 c 0,21.45589 0.36127,34.12173 0.97325,34.12173 0.53528,0 3.01028,-0.98967 5.5,-2.19926 l 4.52675,-2.19927 0.0154,-38.55073 0.0154,-38.55074 5.0628,-5.5 c 2.78454,-3.025 7.16509,-8.08177 9.73457,-11.23728 l 4.67178,-5.73728 0.26074,42.48728 c 0.1434,23.36801 0.61221,42.48728 1.04179,42.48728 1.31137,0 8.737,-8.18452 12.56429,-13.84835 7.70983,-11.40941 9.08474,-21.97515 8.3026,-63.80289 -0.33269,-17.79182 -0.2461,-32.34876 0.19243,-32.34876 0.43853,0 3.60951,2.54488 7.04662,5.65529 l 6.24929,5.65529 -0.4277,34.09471 c -0.38095,30.36827 -0.64826,34.87291 -2.44574,41.21476 -6.16751,21.76023 -22.11714,37.30514 -55.43611,54.02944 -16.91836,8.49209 -17.51809,8.48118 -35.2625,-0.64148 z m -19.38766,-80.30367 -3.19805,-3.29955 v -16.2024 -16.20239 h 10 10 v 11.66382 11.66382 l -6.18078,7.08618 c -3.39943,3.8974 -6.46031,7.42456 -6.80195,7.83813 -0.34164,0.41357 -2.06029,-0.73285 -3.81922,-2.54761 z m -37.70665,-43.45434 c 0.0102,-35.28749 -0.14768,-34.68928 10.53521,-39.91899 25.12277,-12.29865 56.57703,-17.63016 81.97339,-13.89453 6.325,0.93037 11.9275,2.11276 12.45,2.62755 0.59559,0.5868 0.3158,0.93597 -0.75,0.93597 -2.92042,0 -1.9073,1.65558 4.51257,7.37422 3.41691,3.04369 5.89481,5.85173 5.50644,6.2401 -0.38836,0.38837 -2.53297,0.15878 -4.76579,-0.51019 -14.76262,-4.42299 -33.91567,-5.83475 -49.45322,-3.64518 -14.46684,2.03869 -21.14991,3.73405 -33,8.37145 -14.98749,5.86518 -13.5,2.46931 -13.5,30.8198 v 24.42017 l -2.17934,-1.16635 c -1.94781,-1.04243 -2.64419,-0.67434 -6.55499,3.46482 -2.40662,2.54714 -4.46729,4.63116 -4.57927,4.63116 -0.11199,0 -0.19974,-13.3875 -0.195,-29.75 z m 65.5086,0.25 v -17.5 h 9.5 9.5 v 7.08328 7.08329 l -9.1198,10.41671 c -5.01589,5.7292 -9.29089,10.41672 -9.5,10.41672 -0.20911,0 -0.3802,-7.875 -0.3802,-17.5 z"
         id="path2" />
    </g>
  </g>
</svg>
